<?xml version="1.0" encoding="iso-8859-1"?>
<!-- Generator: Adobe Illustrator 19.0.0, SVG Export Plug-In . SVG Version: 6.00 Build 0)  -->
<svg version="1.1" id="Layer_1" xmlns="http://www.w3.org/2000/svg" xmlns:xlink="http://www.w3.org/1999/xlink" x="0px" y="0px"
	 viewBox="0 0 511.999 511.999" style="enable-background:new 0 0 511.999 511.999;" xml:space="preserve">
<g>
	<path style="fill:#D9454A;" d="M484.684,128.188H27.316c-8.802,0-15.938,7.136-15.938,15.938v64.835
		c0,8.802,7.136,15.938,15.938,15.938h457.368c8.802,0,15.938-7.136,15.938-15.938v-64.835
		C500.622,135.323,493.486,128.188,484.684,128.188z"/>
	<path style="fill:#D9454A;" d="M460.8,224.899H51.2v257.129c0,8.802,7.136,15.938,15.938,15.938h377.724
		c8.802,0,15.938-7.136,15.938-15.938V224.899z"/>
</g>
<g>
	<rect x="216.178" y="128.193" style="fill:#EFEFEF;" width="79.64" height="369.778"/>
	<path style="fill:#EFEFEF;" d="M172.198,21.159l32.3,18.229C236.32,57.347,256,91.053,256,127.59v0.597H150.158
		c-32.66,0-59.136-26.476-59.136-59.136c0,0,0.011-2.553,0.034-3.228C92.423,25.38,136.958,1.271,172.198,21.159z"/>
	<path style="fill:#EFEFEF;" d="M339.801,21.159l-32.3,18.229C275.68,57.347,256,91.053,256,127.59v0.597h105.842
		c32.66,0,59.136-26.476,59.136-59.136c0,0-0.011-2.553-0.034-3.228C419.577,25.38,375.042,1.271,339.801,21.159z"/>
</g>
<g>
	<path style="fill:#231F20;" d="M484.684,116.809h-71.022c11.595-12.57,18.694-29.348,18.694-47.757c0,0-0.014-2.81-0.041-3.612
		c-0.767-22.718-13.156-42.978-33.139-54.2c-20.387-11.446-44.674-11.443-64.967,0.011l-32.3,18.229
		C281.68,40.897,265.849,58.105,256,78.339c-9.849-20.234-25.68-37.442-45.908-48.858l-32.3-18.231
		c-20.293-11.453-44.58-11.457-64.967-0.011c-19.983,11.221-32.372,31.482-33.139,54.2c-0.027,0.802-0.041,3.612-0.041,3.612
		c0,18.409,7.099,35.187,18.694,47.758H27.316C12.254,116.809,0,129.064,0,144.126v64.834c0,15.062,12.254,27.316,27.316,27.316
		h12.506v245.751c0,15.062,12.254,27.316,27.316,27.316h377.723c15.062,0,27.316-12.254,27.316-27.316V236.275h12.506
		c15.062,0,27.316-12.254,27.316-27.316v-64.834C512,129.064,499.746,116.809,484.684,116.809z M313.093,49.297l32.3-18.229
		c13.309-7.512,29.25-7.506,42.642,0.014c12.99,7.293,21.041,20.424,21.537,35.127c0.018,0.546,0.027,2.843,0.027,2.843
		c0,26.334-21.424,47.758-47.758,47.758h-93.813C271.439,88.662,288.055,63.427,313.093,49.297z M284.442,486.586h-56.885V139.564
		h56.885L284.442,486.586L284.442,486.586z M102.4,69.052c0,0,0.009-2.297,0.027-2.843c0.497-14.702,8.548-27.833,21.537-35.127
		c6.702-3.763,14.038-5.643,21.366-5.643c7.317,0,14.626,1.876,21.275,5.63l32.3,18.229c25.038,14.13,41.654,39.365,45.064,67.511
		h-93.813C123.824,116.809,102.4,95.384,102.4,69.052z M22.756,208.961v-64.834c0-2.516,2.046-4.561,4.56-4.561h177.485v73.956
		H27.316C24.801,213.52,22.756,211.475,22.756,208.961z M62.578,482.027V236.275h142.223v34.612h-46.842
		c-6.284,0-11.378,5.095-11.378,11.378c0,6.283,5.094,11.378,11.378,11.378h46.842v192.943H67.138
		C64.624,486.586,62.578,484.542,62.578,482.027z M449.422,482.027c0,2.514-2.046,4.56-4.56,4.56H307.198V293.643h43.355
		c6.284,0,11.378-5.095,11.378-11.378s-5.094-11.378-11.378-11.378h-43.355v-34.612h142.225V482.027z M489.244,208.961
		c0,2.514-2.046,4.56-4.56,4.56H307.198v-73.956h177.487c2.514,0,4.56,2.046,4.56,4.561V208.961z"/>
	<path style="fill:#231F20;" d="M404.598,293.643h1.138c6.284,0,11.378-5.095,11.378-11.378s-5.094-11.378-11.378-11.378h-1.138
		c-6.284,0-11.378,5.095-11.378,11.378S398.314,293.643,404.598,293.643z"/>
	<path style="fill:#231F20;" d="M103.916,270.888h-1.138c-6.284,0-11.378,5.095-11.378,11.378c0,6.283,5.094,11.378,11.378,11.378
		h1.138c6.284,0,11.378-5.095,11.378-11.378S110.198,270.888,103.916,270.888z"/>
</g>
<g>
</g>
<g>
</g>
<g>
</g>
<g>
</g>
<g>
</g>
<g>
</g>
<g>
</g>
<g>
</g>
<g>
</g>
<g>
</g>
<g>
</g>
<g>
</g>
<g>
</g>
<g>
</g>
<g>
</g>
</svg>
