<svg id="_36-love_earth" height="512" viewBox="0 0 512 512" width="512" xmlns="http://www.w3.org/2000/svg" xmlns:xlink="http://www.w3.org/1999/xlink" data-name="36-love earth"><linearGradient id="New_Gradient_Swatch_1" gradientUnits="userSpaceOnUse" x1="174.683" x2="337.317" y1="337.317" y2="174.683"><stop offset=".015" stop-color="#72c0d6"/><stop offset="1" stop-color="#c6e6ef"/></linearGradient><linearGradient id="New_Gradient_Swatch_4" gradientUnits="userSpaceOnUse" x1="149.833" x2="346.843" y1="348.722" y2="151.712"><stop offset=".011" stop-color="#618564"/><stop offset="1" stop-color="#c0cec1"/></linearGradient><linearGradient id="New_Gradient_Swatch_4-2" x1="195.573" x2="392.582" xlink:href="#New_Gradient_Swatch_4" y1="394.461" y2="197.452"/><linearGradient id="New_Gradient_Swatch_3" gradientUnits="userSpaceOnUse" x1="380.963" x2="453.846" y1="438.738" y2="365.856"><stop offset="0" stop-color="#ffa399"/><stop offset="1" stop-color="#ffc8c2"/></linearGradient><linearGradient id="New_Gradient_Swatch_3-2" x1="60.963" x2="133.846" xlink:href="#New_Gradient_Swatch_3" y1="127.738" y2="54.856"/><g id="linear_color" data-name="linear color"><circle cx="256" cy="256" fill="url(#New_Gradient_Swatch_1)" r="115"/><path d="m295.052 297.766-6.325-38.026-36.467-12.156-29.208-5.818-23.468-22.545h16.208l20.26-16.208 40.519-4.052 1.793-55.78a115.114 115.114 0 0 0 -133.164 81.929l13.85 8.656 16 24 44.794 30.334-4.052 32.415 16.208 28.368-.241 19.549a115.858 115.858 0 0 0 47.293.255v-38.921z" fill="url(#New_Gradient_Swatch_4)"/><path d="m342.706 180.458-15.654 31.308 8 40 18.195 15.4 12.162 24.324a115.129 115.129 0 0 0 -22.7-111.035z" fill="url(#New_Gradient_Swatch_4-2)"/><path d="m364.373 409.461c-7.284-29.509 16.281-56.869 52.971-34.855 36.689-22.014 60.659 5.39 53.2 34.855-9.172 36.23-53.2 55.034-53.2 55.034s-44.028-18.804-52.971-55.034z" fill="url(#New_Gradient_Swatch_3)"/><path d="m44.373 98.461c-7.284-29.509 16.281-56.869 52.971-34.855 36.689-22.014 60.656 5.394 53.199 34.855-9.172 36.23-53.2 55.034-53.2 55.034s-44.027-18.804-52.97-55.034z" fill="url(#New_Gradient_Swatch_3-2)"/><path d="m376.66 295.633c.1-.273.189-.549.269-.828a126.832 126.832 0 0 0 -24.381-121.216 11.988 11.988 0 0 0 -1.67-1.912 126.935 126.935 0 0 0 -217.152 49.965c-.075.245-.143.491-.2.738a126.707 126.707 0 0 0 -4.526 33.62c3.691 145.2 200.079 174.869 247.66 39.633zm-85.608 57.222v-20.255l14.733-29.467a12.01 12.01 0 0 0 1.1-7.335l-6.325-38.027a12 12 0 0 0 -8.043-9.415l-36.462-12.156a11.972 11.972 0 0 0 -1.451-.385l-25.768-5.132-3.709-3.563 15.65-12.52 36.989-3.7a12 12 0 0 0 10.8-11.554l1.306-40.619a103.184 103.184 0 0 1 38.335 23.9l-11.889 23.773a12 12 0 0 0 -1.033 7.72l8 40a12 12 0 0 0 4.014 6.806l16.316 13.811 8.777 17.555a103.536 103.536 0 0 1 -61.34 60.563zm67.948-96.542-13-11-6.372-31.861 4.966-9.932a102.365 102.365 0 0 1 14.406 52.48zm-206-.313c0-3.057.142-6.081.4-9.071l11.663 17.494a12.007 12.007 0 0 0 3.255 3.279l38.7 26.212-3.139 25.117a12 12 0 0 0 1.488 7.443l14.594 25.526-.006.485a103.172 103.172 0 0 1 -66.955-96.485zm90.885 102.284c-.157-4.1 1-11.767-1.466-15.355l-14.219-24.89 3.556-28.447a12 12 0 0 0 -5.178-11.424l-42.848-29.017-14.694-22.041a11.984 11.984 0 0 0 -3.624-3.519l-5.882-3.677a103.17 103.17 0 0 1 96.47-66.914c3.383 0 6.727.169 10.026.489l-1.111 34.577-30.058 3.006a11.993 11.993 0 0 0 -6.3 2.571l-16.973 13.578h-12a12 12 0 0 0 -8.313 20.653l23.467 22.546a12 12 0 0 0 5.97 3.115l28.47 5.671 28.9 9.633 4.5 27.05-14.26 28.511a12 12 0 0 0 -1.266 5.367v28.639a103.378 103.378 0 0 1 -23.167-.122z"/><path d="m466.808 362.438c-13.4-9.96-31.152-10.413-49.464-1.48-18.2-8.882-35.827-8.479-49.121 1.34-14.31 10.569-20.394 30.211-15.5 50.038 10.259 41.561 57.885 62.33 59.908 63.193a11.991 11.991 0 0 0 9.426 0c2.021-.862 49.61-21.613 60.119-63.124 4.989-19.705-1.043-39.319-15.368-49.967zm-7.9 44.078c-5.964 23.556-31.012 39.027-41.564 44.615-10.553-5.593-35.521-21.041-41.323-44.546-2.523-10.227.072-20.266 6.458-24.983 6.607-4.88 17.064-3.683 28.689 3.293a12.005 12.005 0 0 0 12.348 0c11.7-7.02 22.259-8.184 28.972-3.195 6.397 4.753 8.977 14.726 6.422 24.816z"/><path d="m32.723 101.337c10.259 41.561 57.885 62.33 59.908 63.193a11.991 11.991 0 0 0 9.426 0c2.021-.862 49.61-21.613 60.119-63.124 4.989-19.706-1.043-39.32-15.368-49.968-13.4-9.961-31.152-10.412-49.464-1.48-18.2-8.881-35.826-8.479-49.121 1.34-14.31 10.569-20.394 30.211-15.5 50.038zm29.758-30.737c6.608-4.878 17.064-3.68 28.689 3.3a12.005 12.005 0 0 0 12.348 0c11.7-7.02 22.259-8.185 28.972-3.2 6.395 4.752 8.975 14.725 6.42 24.815-5.964 23.556-31.012 39.027-41.564 44.615-10.553-5.593-35.521-21.041-41.323-44.546-2.523-10.225.077-20.264 6.458-24.984z"/><path d="m504.485 231.515a12 12 0 0 0 -16.97 0l-11.882 11.885a219.991 219.991 0 0 0 -219.633-207.4 12 12 0 0 0 0 24c103.557 0 188.6 80.73 195.53 182.56l-11.045-11.045a12 12 0 0 0 -16.97 16.97l32 32a12 12 0 0 0 16.97 0l32-32a12 12 0 0 0 0-16.97z"/><path d="m256 452c-103.557 0-188.6-80.73-195.53-182.56l11.045 11.045a12 12 0 0 0 16.97-16.97l-32-32a12 12 0 0 0 -16.97 0l-32 32a12 12 0 0 0 16.97 16.97l11.882-11.885a219.991 219.991 0 0 0 219.633 207.4 12 12 0 0 0 0-24z"/></g></svg>